<svg width="1075" height="141" viewBox="0 0 1075 141" fill="none" xmlns="http://www.w3.org/2000/svg">
<path fill-rule="evenodd" clip-rule="evenodd" d="M531.264 131.405C539.158 134.588 547.699 136.179 556.888 136.179C566.079 136.179 574.619 134.588 582.513 131.405C590.525 128.104 597.475 123.508 603.366 117.614C609.375 111.602 614.029 104.588 617.328 96.5723C620.744 88.4387 622.453 79.5388 622.453 69.8728C622.453 60.2068 620.744 51.366 617.328 43.3503C614.029 35.3346 609.375 28.3797 603.366 22.4858C597.475 16.592 590.525 12.0536 582.513 8.8709C574.619 5.57032 566.079 3.92004 556.888 3.92004C547.699 3.92004 539.158 5.57032 531.264 8.8709C523.37 12.0536 516.419 16.592 510.411 22.4858C504.52 28.3798 499.867 35.3346 496.45 43.3503C493.151 51.366 491.501 60.2069 491.501 69.8728C491.501 79.5387 493.151 88.4387 496.45 96.5723C499.867 104.588 504.52 111.602 510.411 117.614C516.419 123.508 523.37 128.104 531.264 131.405ZM570.143 103.468C566.255 105.354 561.837 106.297 556.888 106.297C551.941 106.297 547.522 105.354 543.634 103.468C539.746 101.582 536.448 98.9888 533.738 95.6883C531.146 92.2697 529.143 88.3797 527.73 84.0183C526.434 79.5388 525.786 74.8238 525.786 69.8728C525.786 64.9219 526.434 60.2658 527.73 55.9043C529.143 51.5428 531.146 47.7118 533.738 44.4112C536.448 41.1106 539.746 38.5173 543.634 36.6312C547.522 34.7452 551.941 33.8021 556.888 33.8021C561.837 33.8021 566.255 34.7452 570.143 36.6312C574.031 38.5173 577.27 41.1106 579.862 44.4112C582.573 47.7118 584.575 51.5428 585.871 55.9043C587.285 60.2658 587.991 64.922 587.991 69.8728C587.991 74.8237 587.285 79.5389 585.871 84.0183C584.575 88.3797 582.573 92.2697 579.862 95.6883C577.27 98.9888 574.031 101.582 570.143 103.468Z" fill="white"/>
<path fill-rule="evenodd" clip-rule="evenodd" d="M250.948 110.011L242.976 133.527H209.222L256.23 6.57211H292.811L339.289 133.527H303.238L295.496 110.011H250.948ZM286.821 83.6645H259.88L273.549 43.3502L286.821 83.6645Z" fill="white"/>
<path d="M399.559 133.527L372.344 60.3246V133.527H342.125V6.57211H381.533L413.52 92.6822L445.33 6.57211H484.738V133.527H454.519V59.4405L427.127 133.527H399.559Z" fill="white"/>
<path d="M710.262 133.527L659.72 54.3128V133.527H629.146V6.57211H665.021L711.853 79.9513V6.57211H742.425V133.527H710.262Z" fill="white"/>
<path d="M851.506 114.785C855.982 108.301 858.221 100.698 858.221 91.975C858.221 82.7805 855.276 75.4131 849.385 69.8728C843.494 64.2147 834.894 60.2657 823.584 58.026L799.019 53.252C796.781 52.7804 794.72 52.1322 792.834 51.3071C790.949 50.364 789.418 49.2441 788.239 47.9475C787.179 46.5329 786.649 44.8826 786.649 42.9966C786.649 40.6391 787.297 38.5762 788.593 36.8079C789.889 34.9219 791.715 33.4485 794.071 32.3875C796.428 31.3266 799.255 30.7962 802.554 30.7962C806.324 30.7962 809.622 31.5624 812.451 33.0948C815.278 34.6272 817.576 36.8079 819.343 39.637C821.109 42.4661 822.111 45.8257 822.346 49.7157H856.1C855.511 40.5211 852.802 32.6233 847.971 26.022C843.259 19.3031 836.956 14.1164 829.062 10.4622C821.286 6.80793 812.333 4.98083 802.201 4.98083C792.657 4.98083 784.175 6.69005 776.752 10.1086C769.33 13.527 763.498 18.3011 759.257 24.4307C755.015 30.4425 752.895 37.3973 752.895 45.2952C752.895 50.3639 753.661 54.9613 755.193 59.087C756.842 63.0948 759.139 66.6311 762.085 69.696C765.148 72.6429 768.742 75.1183 772.865 77.1223C776.989 79.1262 781.583 80.5998 786.649 81.5427L809.8 85.9631C813.57 86.6703 816.632 88.026 818.99 90.0299C821.463 91.9161 822.7 94.2146 822.7 96.9258C822.7 99.5192 821.875 101.759 820.227 103.645C818.695 105.531 816.515 106.945 813.688 107.889C810.859 108.831 807.502 109.303 803.615 109.303C796.781 109.303 791.42 107.535 787.532 103.999C783.762 100.462 781.759 95.6881 781.524 89.6763H747.77C748.595 98.9887 751.364 107.063 756.076 113.9C760.906 120.737 767.386 126.042 775.515 129.814C783.762 133.468 793.364 135.295 804.321 135.295C815.395 135.295 824.939 133.527 832.95 129.99C840.962 126.337 847.147 121.267 851.506 114.785Z" fill="white"/>
<path d="M974.483 6.57211V82.9572C974.483 93.2126 972.362 102.348 968.121 110.364C963.997 118.38 957.811 124.686 949.564 129.284C941.435 133.88 931.421 136.179 919.521 136.179C907.505 136.179 897.373 133.88 889.126 129.284C880.997 124.686 874.811 118.38 870.57 110.364C866.446 102.348 864.385 93.2126 864.385 82.9572V6.57211H897.785V83.4877C897.785 87.8492 898.433 91.7981 899.729 95.3344C901.024 98.7529 903.204 101.464 906.267 103.468C909.449 105.354 913.867 106.297 919.521 106.297C925.177 106.297 929.536 105.354 932.599 103.468C935.78 101.464 937.96 98.7529 939.137 95.3344C940.434 91.7981 941.082 87.8491 941.082 83.4877V6.57211H974.483Z" fill="white"/>
<path d="M988.228 133.527H1075V103.291H1021.63V6.57211H988.228L988.228 133.527Z" fill="white"/>
<path d="M126.366 126.435L120.286 120.351C110.432 130.211 97.8765 136.925 84.2082 139.645C70.5399 142.366 56.3725 140.969 43.4972 135.633C30.622 130.298 19.6173 121.262 11.8749 109.668C4.13253 98.0739 0 84.4436 0 70.5C0 56.5565 4.13249 42.926 11.875 31.3323C19.6173 19.7387 30.622 10.7025 43.4972 5.36652C56.3725 0.0305367 70.54 -1.36558 84.2082 1.35467C97.8764 4.07492 110.432 10.7893 120.286 20.649L126.366 14.5653C134.221 22.4239 140.353 31.8732 144.331 42.3075L39.1722 70.4999L144.331 98.6923C140.353 109.127 134.221 118.576 126.366 126.435Z" fill="white"/>
<path fill-rule="evenodd" clip-rule="evenodd" d="M138.618 88.6045C141.751 76.6344 141.746 64.5648 138.618 52.3959L71.0881 70.5L138.618 88.6045Z" fill="white"/>
</svg>
